<svg id="레이어_1" data-name="레이어 1" xmlns="http://www.w3.org/2000/svg" viewBox="0 0 138 20.77"><defs><style>.cls-1{fill:#fff;}</style></defs><path class="cls-1" d="M7.24,20.37V12L0,.4H3.17L8.61,9.1,14.06.4h3.28L10.12,11.92v8.45Z"/><path class="cls-1" d="M31.43,16.3A6.47,6.47,0,0,0,32.74,12V.4h2.88V12a11.27,11.27,0,0,1-.56,3.67,7.53,7.53,0,0,1-1.58,2.72A6.79,6.79,0,0,1,31,20.07a9,9,0,0,1-6.37,0,6.8,6.8,0,0,1-2.45-1.7,7.53,7.53,0,0,1-1.58-2.72A11,11,0,0,1,20.05,12V.4h2.88V12a6.47,6.47,0,0,0,1.31,4.29,4.45,4.45,0,0,0,3.59,1.56A4.45,4.45,0,0,0,31.43,16.3Z"/><path class="cls-1" d="M43.09,4.91V20.37H40.24V.4h3.17l10.4,15.54V.4h2.86v20h-3.2Z"/><path class="cls-1" d="M69.5,17.06a2.86,2.86,0,0,0,.91-2.23,3,3,0,0,0-.24-1.3,2.4,2.4,0,0,0-.71-.85,4.87,4.87,0,0,0-1.16-.63c-.45-.18-1-.37-1.54-.58L65.39,11a12.53,12.53,0,0,1-1.92-.88,4.83,4.83,0,0,1-1.36-1.14,5.47,5.47,0,0,1-.88-1.48,5.16,5.16,0,0,1-.31-1.89,5.57,5.57,0,0,1,.35-1.94,5.1,5.1,0,0,1,1.11-1.75A5.91,5.91,0,0,1,64.28.6,7,7,0,0,1,67,.12,6.19,6.19,0,0,1,71.5,1.71a5.86,5.86,0,0,1,1.62,4.37h-3V5.71a2.58,2.58,0,0,0-.87-2.1A3.41,3.41,0,0,0,67,2.88a3.35,3.35,0,0,0-2.22.7,2.37,2.37,0,0,0-.83,1.93,2.52,2.52,0,0,0,.16,1,1.94,1.94,0,0,0,.54.77,4.51,4.51,0,0,0,1,.69,14.41,14.41,0,0,0,1.59.67L68.39,9a15.06,15.06,0,0,1,2.18,1,7.19,7.19,0,0,1,1.5,1.17,5.24,5.24,0,0,1,1,1.52,5.12,5.12,0,0,1,.36,2.05A5.66,5.66,0,0,1,73,17a5.9,5.9,0,0,1-1.33,1.88,6.66,6.66,0,0,1-2,1.3,6.81,6.81,0,0,1-2.58.48,7.59,7.59,0,0,1-2.6-.43A6,6,0,0,1,62.34,19a5.85,5.85,0,0,1-1.4-2,6.86,6.86,0,0,1-.51-2.71h3v.29a3.13,3.13,0,0,0,1,2.45,3.73,3.73,0,0,0,2.57.88A3.57,3.57,0,0,0,69.5,17.06Z"/><path class="cls-1" d="M76.86,20.37V.4h2.91v20Z"/><path class="cls-1" d="M87.38,4.91V20.37H84.53V.4h3.16L98.1,15.94V.4H101v20h-3.2Z"/><path class="cls-1" d="M113.79,17.06a2.86,2.86,0,0,0,.91-2.23,3,3,0,0,0-.24-1.3,2.4,2.4,0,0,0-.71-.85,4.87,4.87,0,0,0-1.16-.63l-1.54-.58L109.68,11a12.53,12.53,0,0,1-1.92-.88,4.83,4.83,0,0,1-1.36-1.14,5.47,5.47,0,0,1-.88-1.48,5.16,5.16,0,0,1-.32-1.89,5.58,5.58,0,0,1,.36-1.94,5.1,5.1,0,0,1,1.11-1.75A5.91,5.91,0,0,1,108.57.6a7,7,0,0,1,2.71-.48,6.15,6.15,0,0,1,4.5,1.59,5.83,5.83,0,0,1,1.63,4.37h-3V5.71a2.58,2.58,0,0,0-.87-2.1,3.85,3.85,0,0,0-4.47,0,2.4,2.4,0,0,0-.82,1.93,2.75,2.75,0,0,0,.15,1,2.08,2.08,0,0,0,.55.77,4.3,4.3,0,0,0,1,.69,14.41,14.41,0,0,0,1.59.67l1.14.42a15.06,15.06,0,0,1,2.18,1,6.88,6.88,0,0,1,1.49,1.17,5.08,5.08,0,0,1,1,1.52,5.13,5.13,0,0,1,.35,2.05,5.5,5.5,0,0,1-.47,2.27,5.72,5.72,0,0,1-1.32,1.88,6.66,6.66,0,0,1-2,1.3,6.81,6.81,0,0,1-2.58.48,7.59,7.59,0,0,1-2.6-.43A6,6,0,0,1,106.63,19a5.72,5.72,0,0,1-1.4-2,6.86,6.86,0,0,1-.51-2.71h3v.29a3.1,3.1,0,0,0,1,2.45,3.73,3.73,0,0,0,2.57.88A3.57,3.57,0,0,0,113.79,17.06Z"/><path class="cls-1" d="M132.81,14.8h-8.9l-2.25,5.57h-2.94l8.07-20h3.14l8.07,20h-2.94Zm-4.45-11L125.05,12h6.62Z"/></svg>